#!OML:ASF H:\ManfredETheater\Project 1\Capture day 1\Session 1\subject.ASF
:FULLY-SPECIFIED
:DEGREES
108
root 8.2651 15.4156 5.63294 16.0618 8.66991 14.9565
lowerback 18.739 -2.36234 -13.2429
upperback 1.47084 -6.09377 -3.00299
thorax -7.85477 -2.50469 5.64488
lowerneck -21.0364 -1.78285 -4.32089
upperneck 6.03764 -1.58575 3.09302
head 5.2265 -0.64971 1.51121
rclavicle 1.02175e-013 5.56597e-015
rhumerus -64.979 0.338812 -82.3813
rradius 85.9042
rwrist -12.2499
rhand -26.6398 10.8669
rfingers 7.12502
rthumb -0.07223 -19.1129
lclavicle 1.02175e-013 5.56597e-015
lhumerus -17.1075 -10.9464 88.0676
lradius 127.732
lwrist 11.6737
lhand -19.4366 -10.4271
lfingers 7.12502
lthumb 6.88368 19.441
rfemur -69.2846 -10.8402 18.8385
rtibia 80.5983
rfoot -17.8981 -10.0037
rtoes -43.7034
lfemur -5.82072 -6.81137 -19.1225
ltibia 41.5275
lfoot -30.3359 5.12892
ltoes -37.7716
109
root 8.33001 15.4831 6.11826 16.3212 8.31527 15.1266
lowerback 18.6622 -2.54329 -13.0294
upperback 1.39535 -6.27113 -2.85407
thorax -7.86814 -2.59207 5.72561
lowerneck -21.115 -1.60145 -4.22433
upperneck 5.96963 -1.32464 2.74113
head 5.2031 -0.546193 1.41015
rclavicle -2.8625e-014 1.16289e-014
rhumerus -64.9268 0.215405 -82.6883
rradius 86.3963
rwrist -12.458
rhand -26.7522 11.048
rfingers 7.12502
rthumb -0.180754 -18.9317
lclavicle -2.8625e-014 1.16289e-014
lhumerus -18.0777 -12.1794 88.4796
lradius 127.798
lwrist 11.2025
lhand -19.1892 -10.6363
lfingers 7.12502
lthumb 7.12253 19.2239
rfemur -69.7236 -10.4016 17.8649
rtibia 77.0099
rfoot -16.9858 -10.1347
rtoes -43.7521
lfemur -3.96344 -6.93693 -19.726
ltibia 40.3037
lfoot -26.976 4.80656
ltoes -38.5396
110
root 8.39225 15.5416 6.6083 16.5236 7.96425 15.313
lowerback 18.5808 -2.68581 -12.8086
upperback 1.35111 -6.3954 -2.73808
thorax -7.85873 -2.65775 5.75311
lowerneck -21.1984 -1.46235 -4.15715
upperneck 5.89031 -1.1141 2.4052
head 5.18007 -0.46682 1.31358
rclavicle 7.37243e-014 9.49197e-015
rhumerus -64.7283 0.00366363 -83.0004
rradius 86.6521
rwrist -12.6343
rhand -26.9247 11.2076
rfingers 7.12502
rthumb -0.347357 -18.7719
lclavicle 7.37243e-014 9.49197e-015
lhumerus -19.1586 -13.4545 88.9022
lradius 127.472
lwrist 10.7095
lhand -18.955 -10.8225
lfingers 7.12502
lthumb 7.34855 19.0299
rfemur -69.9046 -10.0004 16.8447
rtibia 73.5863
rfoot -15.739 -10.3035
rtoes -43.559
lfemur -2.31953 -7.04774 -20.3197
ltibia 39.3932
lfoot -23.0852 4.22138
ltoes -38.8022
111
root 8.44872 15.6085 7.10552 16.69 7.60131 15.5224
lowerback 18.4763 -2.78896 -12.5877
upperback 1.32801 -6.46584 -2.66049
thorax -7.82784 -2.70072 5.72407
lowerneck -21.282 -1.35954 -4.1128
upperneck 5.80543 -0.947562 2.08104
head 5.15779 -0.408564 1.21985
rclavicle -3.00165e-014 -2.33261e-014
rhumerus -64.3698 -0.271746 -83.3222
rradius 86.6545
rwrist -12.7958
rhand -27.1112 11.3254
rfingers 7.12502
rthumb -0.527455 -18.6537
lclavicle -3.00165e-014 -2.33261e-014
lhumerus -20.3521 -14.7167 89.3433
lradius 126.735
lwrist 10.158
lhand -18.7979 -10.9844
lfingers 7.12502
lthumb 7.50023 18.8626
rfemur -69.7699 -9.61183 15.805
rtibia 70.3517
rfoot -14.2295 -10.5604
rtoes -43.1321
lfemur -0.93457 -7.15416 -20.9282
ltibia 38.784
lfoot -18.6389 3.49469
ltoes -38.3571
112
root 8.50258 15.6724 7.60734 16.8326 7.20081 15.7581
lowerback 18.3377 -2.8481 -12.3763
upperback 1.31396 -6.47846 -2.62145
thorax -7.78253 -2.71775 5.6428
lowerneck -21.3676 -1.28444 -4.08536
upperneck 5.73068 -0.813639 1.7559
head 5.14079 -0.366782 1.12515
rclavicle 3.22031e-014 3.21534e-014
rhumerus -63.8484 -0.574312 -83.6491
rradius 86.4004
rwrist -12.9767
rhand -27.2596 11.3837
rfingers 7.12502
rthumb -0.670836 -18.595
lclavicle 3.22031e-014 3.21534e-014
lhumerus -21.6573 -15.9131 89.8149
lradius 125.58
lwrist 9.50187
lhand -18.7603 -11.1019
lfingers 7.12502
lthumb 7.53654 18.7438
rfemur -69.4432 -9.21889 14.7744
rtibia 67.4493
rfoot -12.5458 -10.8633
rtoes -42.3758
lfemur 0.145213 -7.273 -21.582
ltibia 38.5313
lfoot -13.7568 2.67678
ltoes -36.8689
113
root 8.55493 15.7306 8.11204 16.9571 6.75581 16.0155
lowerback 18.1728 -2.86448 -12.1795
upperback 1.29775 -6.43778 -2.6125
thorax -7.73676 -2.70918 5.52361
lowerneck -21.4505 -1.22883 -4.06967
upperneck 5.67235 -0.701253 1.41587
head 5.12977 -0.337113 1.02535
rclavicle -1.12711e-013 -2.00773e-014
rhumerus -63.1632 -0.85764 -83.9746
rradius 85.9036
rwrist -13.2333
rhand -27.3333 11.362
rfingers 7.12502
rthumb -0.741978 -18.6164
lclavicle -1.12711e-013 -2.00773e-014
lhumerus -23.0776 -16.9932 90.3338
lradius 124.027
lwrist 8.72762
lhand -18.8848 -11.1724
lfingers 7.12502
lthumb 7.4163 18.6776
rfemur -68.9748 -8.82602 13.8054
rtibia 64.9597
rfoot -10.8491 -11.1157
rtoes -41.2767
lfemur 0.909121 -7.4255 -22.2972
ltibia 38.6316
lfoot -8.58417 1.72377
ltoes -33.9714
114
root 8.60657 15.7801 8.61802 17.0577 6.26824 16.2846
lowerback 17.9987 -2.83826 -12.0031
upperback 1.27681 -6.34678 -2.62019
thorax -7.69938 -2.67522 5.38685
lowerneck -21.5255 -1.18724 -4.06633
upperneck 5.62502 -0.602398 1.05554
head 5.12192 -0.316082 0.919652
rclavicle -1.02076e-013 -1.8487e-014
rhumerus -62.3191 -1.08127 -84.2865
rradius 85.1997
rwrist -13.609
rhand -27.2968 11.241
rfingers 7.12502
rthumb -0.706791 -18.7376
lclavicle -1.02076e-013 -1.8487e-014
lhumerus -24.5881 -17.9191 90.9048
lradius 122.101
lwrist 7.83759
lhand -19.1697 -11.2194
lfingers 7.12502
lthumb 7.14132 18.6402
rfemur -68.4105 -8.44642 12.9505
rtibia 62.992
rfoot -9.37817 -11.2948
rtoes -39.9322
lfemur 1.34786 -7.62195 -23.0737
ltibia 39.1529
lfoot -3.58647 0.638364
ltoes -29.7819
115
root 8.65814 15.8188 9.12367 17.1333 5.7506 16.541
lowerback 17.8388 -2.77495 -11.8357
upperback 1.24261 -6.21305 -2.62575
thorax -7.6899 -2.61792 5.25074
lowerneck -21.588 -1.15505 -4.07616
upperneck 5.58369 -0.510673 0.67329
head 5.11481 -0.300672 0.808327
rclavicle 5.26779e-015 7.55382e-015
rhumerus -61.3258 -1.21258 -84.5698
rradius 84.3105
rwrist -14.1115
rhand -27.154 11.0562
rfingers 7.12502
rthumb -0.568795 -18.9227
lclavicle 5.26779e-015 7.55382e-015
lhumerus -26.1594 -18.6583 91.5304
lradius 119.843
lwrist 6.88571
lhand -19.5693 -11.236
lfingers 7.12502
lthumb 6.75559 18.6363
rfemur -67.7858 -8.10489 12.2824
rtibia 61.621
rfoot -8.2503 -11.4478
rtoes -38.3006
lfemur 1.45461 -7.87323 -23.8861
ltibia 40.1251
lfoot 0.7489 -0.533957
ltoes -24.7406
116
root 8.7101 15.8465 9.62786 17.1763 5.23494 16.7453
lowerback 17.7085 -2.68528 -11.6398
upperback 1.19894 -6.04301 -2.60837
thorax -7.71255 -2.54127 5.11957
lowerneck -21.6355 -1.12989 -4.09948
upperneck 5.53726 -0.423282 0.271088
head 5.10444 -0.28921 0.692352
rclavicle -3.8763e-014 3.02153e-014
rhumerus -60.1984 -1.23405 -84.8134
rradius 83.2851
rwrist -14.7234
rhand -26.9285 10.817
rfingers 7.12502
rthumb -0.351037 -19.1624
lclavicle -3.8763e-014 3.02153e-014
lhumerus -27.7469 -19.1989 92.2055
lradius 117.302
lwrist 5.94329
lhand -20.0376 -11.2462
lfingers 7.12502
lthumb 6.30356 18.64
rfemur -67.1011 -7.82704 11.8632
rtibia 60.886
rfoot -7.58728 -11.6597
rtoes -36.2796
lfemur 1.24635 -8.18318 -24.6803
ltibia 41.5657
lfoot 4.05366 -1.77161
ltoes -19.5891
117
root 8.76221 15.864 10.1302 17.1739 4.74672 16.8375
lowerback 17.6233 -2.5782 -11.3667
upperback 1.15448 -5.83797 -2.54539
thorax -7.76776 -2.4476 4.99185
lowerneck -21.6721 -1.11089 -4.13986
upperneck 5.4727 -0.340085 -0.134511
head 5.08735 -0.280163 0.577606
rclavicle -8.20981e-014 -1.59028e-014
rhumerus -58.9518 -1.13558 -85.0153
rradius 82.1742
rwrist -15.3856
rhand -26.6917 10.5399
rfingers 7.12502
rthumb -0.122282 -19.4398
lclavicle -8.20981e-014 -1.59028e-014
lhumerus -29.2969 -19.537 92.913
lradius 114.525
lwrist 5.10083
lhand -20.516 -11.2555
lfingers 7.12502
lthumb 5.8416 18.644
rfemur -66.3294 -7.5949 11.7358
rtibia 60.7613
rfoot -7.45703 -11.9003
rtoes -33.8173
lfemur 0.745806 -8.51998 -25.3749
ltibia 43.4743
lfoot 6.12695 -3.0097
ltoes -15.2103
118
root 8.81367 15.8728 10.6297 17.1216 4.30901 16.7622
lowerback 17.593 -2.45984 -10.9697
upperback 1.11627 -5.59546 -2.41867
thorax -7.85525 -2.33752 4.86069
lowerneck -21.6874 -1.09878 -4.18975
upperneck 5.367 -0.265836 -0.538662
head 5.05461 -0.274762 0.464034
rclavicle 4.13472e-014 3.53837e-014
rhumerus -57.6049 -0.926923 -85.1768
rradius 81.0222
rwrist -16.0171
rhand -26.4938 10.2936
rfingers 7.12502
rthumb 0.068865 -19.6861
lclavicle 4.13472e-014 3.53837e-014
lhumerus -30.7653 -19.6862 93.6393
lradius 111.561
lwrist 4.45713
lhand -20.96 -11.2791
lfingers 7.12502
lthumb 5.413 18.6317
rfemur -65.4365 -7.3671 11.9
rtibia 61.1596
rfoot -7.93419 -12.2653
rtoes -30.9883
lfemur -0.0354606 -8.82466 -25.8774
ltibia 45.8251
lfoot 6.99691 -4.20054
ltoes -12.0748
119
root 8.86358 15.8745 11.1258 17.0204 3.94168 16.4888
lowerback 17.6241 -2.33903 -10.4203
upperback 1.08888 -5.32028 -2.22123
thorax -7.97354 -2.21472 4.71786
lowerneck -21.6798 -1.09186 -4.24537
upperneck 5.21235 -0.201941 -0.925214
head 5.00347 -0.271934 0.356135
rclavicle 8.7664e-014 7.95139e-015
rhumerus -56.1744 -0.62465 -85.3065
rradius 79.8713
rwrist -16.537
rhand -26.3683 10.0836
rfingers 7.12502
rthumb 0.190071 -19.8961
lclavicle 8.7664e-014 7.95139e-015
lhumerus -32.12 -19.6556 94.3595
lradius 108.459
lwrist 4.09904
lhand -21.3361 -11.3212
lfingers 7.12502
lthumb 5.04982 18.5987
rfemur -64.383 -7.11168 12.3226
rtibia 61.9437
rfoot -8.88722 -12.841
rtoes -28.1407
lfemur -1.08405 -9.04518 -26.1249
ltibia 48.5632
lfoot 6.86063 -5.3081
ltoes -10.332
120
root 8.91119 15.8711 11.6189 16.8641 3.64098 15.9882
lowerback 17.7146 -2.21566 -9.69664
upperback 1.08275 -5.00502 -1.95158
thorax -8.11132 -2.07773 4.54897
lowerneck -21.6444 -1.08914 -4.29612
upperneck 4.99792 -0.151575 -1.28944
head 4.9297 -0.272115 0.253531
rclavicle 1.31198e-014 0
rhumerus -54.6727 -0.252502 -85.4159
rradius 78.7638
rwrist -16.8851
rhand -26.3364 9.92613
rfingers 7.12502
rthumb 0.220871 -20.0535
lclavicle 1.31198e-014 0
lhumerus -33.3417 -19.4672 95.0568
lradius 105.255
lwrist 4.08226
lhand -21.6784 -11.3977
lfingers 7.12502
lthumb 4.71931 18.5297
rfemur -63.1304 -6.78554 12.9777
rtibia 62.9554
rfoot -10.1949 -13.6264
rtoes -25.4192
lfemur -2.37367 -9.12439 -26.0678
ltibia 51.6171
lfoot 6.07221 -6.2982
ltoes -9.59323
121
root 8.95546 15.8642 12.1088 16.6427 3.38366 15.2716
lowerback 17.8729 -2.08384 -8.81987
upperback 1.1045 -4.64556 -1.62286
thorax -8.26385 -1.9247 4.34868
lowerneck -21.5847 -1.08869 -4.3206
upperneck 4.72945 -0.117448 -1.63784
head 4.83561 -0.276516 0.150591
rclavicle 2.90226e-014 1.59028e-015
rhumerus -53.1093 0.167691 -85.5204
rradius 77.7334
rwrist -17.0352
rhand -26.366 9.78591
rfingers 7.12502
rthumb 0.192247 -20.1937
lclavicle 2.90226e-014 1.59028e-015
lhumerus -34.4241 -19.1307 95.7058
lradius 101.986
lwrist 4.41122
lhand -22.0377 -11.5174
lfingers 7.12502
lthumb 4.37233 18.4174
rfemur -61.6519 -6.34721 13.8034
rtibia 64.0456
rfoot -11.768 -14.5771
rtoes -23.3186
lfemur -3.86778 -9.00099 -25.7072
ltibia 54.8978
lfoot 4.93176 -7.15188
ltoes -9.53167
122
root 8.9958 15.8549 12.5952 16.3867 3.15852 14.3697
lowerback 18.0768 -1.94603 -7.816
upperback 1.14532 -4.24752 -1.2496
thorax -8.42462 -1.758 4.11376
lowerneck -21.5056 -1.08898 -4.31827
upperneck 4.4264 -0.0980725 -1.96125
head 4.72807 -0.284034 0.0503282
rclavicle -4.96962e-014 -4.69132e-014
rhumerus -51.4967 0.61979 -85.6284
rradius 76.8091
rwrist -16.9941
rhand -26.4026 9.64291
rfingers 7.12502
rthumb 0.156947 -20.3368
lclavicle -4.96962e-014 -4.69132e-014
lhumerus -35.3757 -18.6611 96.2862
lradius 98.6836
lwrist 5.04191
lhand -22.4485 -11.6866
lfingers 7.12502
lthumb 3.97572 18.256
rfemur -59.9747 -5.79806 14.7546
rtibia 65.0553
rfoot -13.4443 -15.6572
rtoes -22.2245
lfemur -5.56121 -8.65632 -25.064
ltibia 58.2779
lfoot 3.63326 -7.85358
ltoes -9.78801
